# xmcd CD database file
#
# Track frame offsets:
#	150
#	21405
#	47482
#	75322
#	87760
#	108487
#	160915
#	175002
#	197545
#	227132
#	245972
#	264880
#	278825
#	290020
#	315795
#
# Disc length: 4557 seconds
#
# Revision: 0
# Processed by: cddbd v1.5.2PL0 Copyright (c) Steve Scherf et al.
# Submitted via: CDex 1.51
#
DISCID=bd11cb0f
DTITLE=Duo Fatale - Living in apollon's garden
DYEAR=1995
DGENRE=Jazz
TTITLE0=In and Out
TTITLE1=No Dream
TTITLE2=Über Ecken und Kanten
TTITLE3=Indianer I
TTITLE4=When the Hearbeat went up to nine...
TTITLE5=Sunday-Waltz
TTITLE6=Auras III
TTITLE7=Percussion Talk
TTITLE8=Volksmund
TTITLE9=NEAT
TTITLE10=Acco-Orchester
TTITLE11=Chor
TTITLE12=Fata Morgana
TTITLE13=Musik der Welten: Ost
TTITLE14=OM
EXTD=YEAR: 1995
EXTT0=
EXTT1=
EXTT2=
EXTT3=
EXTT4=
EXTT5=
EXTT6=
EXTT7=
EXTT8=
EXTT9=
EXTT10=
EXTT11=
EXTT12=
EXTT13=
EXTT14=
PLAYORDER=
